#N canvas 0 0 1265 634 10;
#X obj 26 -68 import mrpeach;
#X obj 130 -9 unpackOSC;
#X obj 130 15 routeOSC /eeg;
#X floatatom 500 86 9 0 0 0 - - -, f 9;
#X floatatom 58 86 9 0 0 0 - - -, f 9;
#X floatatom 196 86 9 0 0 0 - - -, f 9;
#X floatatom 356 86 9 0 0 0 - - -, f 9;
#X floatatom 677 86 9 0 0 0 - - -, f 9;
#X obj 17 86 abs;
#X obj 130 -32 udpreceive 9999 127.0.0.1;
#X msg 192 -65 port 9999;
#X msg 131 -69 port 0;
#X obj 57 269 osc~;
#X obj 165 86 abs;
#X obj 310 86 abs;
#X obj 465 86 abs;
#X obj 612 86 abs;
#X floatatom 8 241 5 0 0 0 - - -, f 5;
#X text 11 211 fundamental;
#X obj 195 269 osc~;
#X obj 355 269 osc~;
#X obj 499 269 osc~;
#X floatatom 58 135 11 0 0 0 - - -, f 11;
#N canvas 674 119 451 324 maximo 0;
#X obj 55 28 inlet;
#X obj 55 113 outlet;
#X obj 55 54 expr if ($f1>$f2 \, $f1 \, $f2);
#X floatatom 55 79 11 0 0 0 - - -, f 11;
#X connect 0 0 2 0;
#X connect 2 0 3 0;
#X connect 3 0 2 1;
#X connect 3 0 1 0;
#X restore 58 108 pd maximo;
#X floatatom 196 135 11 0 0 0 - - -, f 11;
#N canvas 674 119 451 324 maximo 0;
#X obj 55 28 inlet;
#X obj 55 113 outlet;
#X obj 55 54 expr if ($f1>$f2 \, $f1 \, $f2);
#X floatatom 55 79 11 0 0 0 - - -, f 11;
#X connect 0 0 2 0;
#X connect 2 0 3 0;
#X connect 3 0 2 1;
#X connect 3 0 1 0;
#X restore 196 108 pd maximo;
#X floatatom 356 135 11 0 0 0 - - -, f 11;
#N canvas 674 119 451 324 maximo 0;
#X obj 55 28 inlet;
#X obj 55 113 outlet;
#X obj 55 54 expr if ($f1>$f2 \, $f1 \, $f2);
#X floatatom 55 79 11 0 0 0 - - -, f 11;
#X connect 0 0 2 0;
#X connect 2 0 3 0;
#X connect 3 0 2 1;
#X connect 3 0 1 0;
#X restore 356 108 pd maximo;
#X floatatom 500 135 11 0 0 0 - - -, f 11;
#N canvas 674 119 451 324 maximo 0;
#X obj 55 28 inlet;
#X obj 55 113 outlet;
#X obj 55 54 expr if ($f1>$f2 \, $f1 \, $f2);
#X floatatom 55 79 11 0 0 0 - - -, f 11;
#X connect 0 0 2 0;
#X connect 2 0 3 0;
#X connect 3 0 2 1;
#X connect 3 0 1 0;
#X restore 500 108 pd maximo;
#X floatatom 677 135 11 0 0 0 - - -, f 11;
#N canvas 836 177 451 348 maximo 0;
#X obj 55 28 inlet;
#X obj 55 113 outlet;
#X obj 55 54 expr if ($f1>$f2 \, $f1 \, $f2);
#X floatatom 55 79 11 0 0 0 - - -, f 11;
#X connect 0 0 2 0;
#X connect 2 0 3 0;
#X connect 3 0 2 1;
#X connect 3 0 1 0;
#X restore 677 108 pd maximo;
#X obj 92 299 *~;
#X obj 230 299 *~;
#X obj 390 299 *~;
#X obj 533 299 *~;
#X obj 712 299 *~;
#X obj 60 346 *~;
#X obj 199 346 *~, f 2;
#X obj 358 346 *~;
#X obj 501 346 *~;
#X obj 680 346 *~;
#X obj 29 318 tgl 15 0 empty empty empty 17 7 0 10 -262144 -1 -1 1
1;
#X obj 175 321 tgl 15 0 empty empty empty 17 7 0 10 -262144 -1 -1 1
1;
#X obj 335 321 tgl 15 0 empty empty empty 17 7 0 10 -262144 -1 -1 1
1;
#X obj 479 322 tgl 15 0 empty empty empty 17 7 0 10 -262144 -1 -1 1
1;
#X obj 656 319 tgl 15 0 empty empty empty 17 7 0 10 -262144 -1 -1 1
1;
#X obj 307 -65 dsp;
#X obj 288 -53 tgl 15 0 empty empty empty 17 7 0 10 -262144 -1 -1 1
1;
#X obj 323 393 dac~;
#X floatatom 72 187 5 0 0 0 - - -, f 5;
#X floatatom 207 183 5 0 0 0 - - -, f 5;
#X floatatom 364 182 5 0 0 0 - - -, f 5;
#X floatatom 515 185 5 0 0 0 - - -, f 5;
#X floatatom 669 184 5 0 0 0 - - -, f 5;
#X msg 492 446 start;
#X msg 499 471 stop;
#X obj 433 507 writesf~;
#X msg 363 455 open brainOSC.wav;
#X text 345 -73 To be used width OpenVibe scenario OSCMeans.xml  (First
open routeOSC-help from their path in order to dlls be loades);
#X obj 17 58 routeOSC /delta/mean;
#X obj 165 58 routeOSC /theta/mean;
#X obj 310 58 routeOSC /alpha/mean;
#X obj 465 58 routeOSC /beta/mean;
#X obj 613 58 routeOSC /gamma/mean;
#X floatatom 834 87 9 0 0 0 - - -, f 9;
#X obj 769 87 abs;
#X floatatom 834 136 11 0 0 0 - - -, f 11;
#N canvas 674 119 451 324 maximo 0;
#X obj 55 28 inlet;
#X obj 55 113 outlet;
#X obj 55 54 expr if ($f1>$f2 \, $f1 \, $f2);
#X floatatom 55 79 11 0 0 0 - - -, f 11;
#X connect 0 0 2 0;
#X connect 2 0 3 0;
#X connect 3 0 2 1;
#X connect 3 0 1 0;
#X restore 834 109 pd maximo;
#X obj 788 158 expr $f1*10/$f2;
#X floatatom 826 185 13 0 0 0 - - -, f 13;
#X obj 770 58 routeOSC /arousal/mean;
#X floatatom 980 86 9 0 0 0 - - -, f 9;
#X obj 915 86 abs;
#X floatatom 980 135 11 0 0 0 - - -, f 11;
#N canvas 674 119 451 324 maximo 0;
#X obj 55 28 inlet;
#X obj 55 113 outlet;
#X obj 55 54 expr if ($f1>$f2 \, $f1 \, $f2);
#X floatatom 55 79 11 0 0 0 - - -, f 11;
#X connect 0 0 2 0;
#X connect 2 0 3 0;
#X connect 3 0 2 1;
#X connect 3 0 1 0;
#X restore 980 108 pd maximo;
#X obj 934 157 expr $f1*10/$f2;
#X floatatom 972 184 13 0 0 0 - - -, f 13;
#X obj 915 57 routeOSC /valence/mean;
#X obj 164 236 * 1.5;
#X obj 309 236 * 2;
#X obj 464 236 * 2.5;
#X obj 611 236 * 3;
#X obj 676 269 osc~;
#X obj 36 159 expr $f1*10/$f2;
#X obj 169 157 expr $f1*8/$f2;
#X obj 327 154 expr $f1*6/$f2;
#X obj 478 159 expr $f1*4/$f2;
#X obj 631 157 expr $f1*1/$f2;
#X msg 647 399 connect 127.0.0.1 9998;
#X obj 691 497 packOSC;
#X obj 590 413 bng 15 250 50 0 empty empty empty 17 7 0 10 -262144
-1 -1;
#X msg 625 444 send /eeg/saveframes;
#X obj 749 520 tgl 15 0 empty empty connected 20 7 0 8 -24198 -241291
-1 0 1;
#X obj 749 497 udpsend;
#X obj 591 440 bng 15 250 50 0 empty empty empty 17 7 0 10 -262144
-1 -1;
#X msg 603 471 send /eeg/stopframes;
#X text 827 492 That is a system that allows sincronizing saving video
frames and sound in order to produce later videos for NeuroCine;
#X msg 772 462 disconnect;
#X obj 591 390 bng 15 250 50 0 empty empty empty 17 7 0 10 -262144
-1 -1;
#X text 794 400 this is where NeuroCine OpenFrameworks is listening
;
#X obj 69 456 *~ 0.6;
#X obj 0 -6 loadbang;
#X msg 6 187 110;
#N canvas 103 158 451 301 sube_en_t 1;
#X msg 229 71 400;
#X obj 92 21 inlet;
#X obj 109 184 outlet;
#X obj 169 51 t a b;
#X obj 224 21 inlet;
#X obj 180 100 line \$1 400;
#X connect 0 0 5 1;
#X connect 1 0 3 0;
#X connect 1 0 5 0;
#X connect 3 1 0 0;
#X connect 4 0 0 0;
#X connect 5 0 2 0;
#X restore 690 214 pd sube_en_t \$1;
#N canvas 103 158 451 301 sube_en_t 0;
#X msg 229 71 400;
#X obj 92 21 inlet;
#X obj 109 184 outlet;
#X obj 169 51 t a b;
#X obj 224 21 inlet;
#X obj 180 100 line \$1 400;
#N canvas 103 158 451 301 sube_en_t 0;
#X msg 229 71 400;
#X obj 92 21 inlet;
#X obj 109 184 outlet;
#X obj 169 51 t a b;
#X obj 224 21 inlet;
#X obj 180 100 line \$1 400;
#N canvas 103 158 451 301 sube_en_t 0;
#X msg 229 71 400;
#X obj 92 21 inlet;
#X obj 109 184 outlet;
#X obj 169 51 t a b;
#X obj 224 21 inlet;
#X obj 180 100 line \$1 400;
#N canvas 103 158 451 301 sube_en_t 0;
#X msg 229 71 400;
#X obj 92 21 inlet;
#X obj 109 184 outlet;
#X obj 169 51 t a b;
#X obj 224 21 inlet;
#X obj 180 100 line \$1 400;
#X connect 0 0 5 1;
#X connect 1 0 3 0;
#X connect 1 0 5 0;
#X connect 3 1 0 0;
#X connect 4 0 0 0;
#X connect 5 0 2 0;
#X restore 781 242 pd sube_en_t \$1;
#X connect 0 0 5 1;
#X connect 1 0 3 0;
#X connect 1 0 5 0;
#X connect 3 1 0 0;
#X connect 4 0 0 0;
#X connect 5 0 2 0;
#X restore 781 242 pd sube_en_t \$1;
#X connect 0 0 5 1;
#X connect 1 0 3 0;
#X connect 1 0 5 0;
#X connect 3 1 0 0;
#X connect 4 0 0 0;
#X connect 5 0 2 0;
#X restore 781 242 pd sube_en_t \$1;
#X connect 0 0 5 1;
#X connect 1 0 3 0;
#X connect 1 0 5 0;
#X connect 3 1 0 0;
#X connect 4 0 0 0;
#X connect 5 0 2 0;
#X restore 539 209 pd sube_en_t \$1;
#N canvas 103 158 451 301 sube_en_t 0;
#X msg 229 71 400;
#X obj 92 21 inlet;
#X obj 109 184 outlet;
#X obj 169 51 t a b;
#X obj 224 21 inlet;
#X obj 180 100 line \$1 400;
#X connect 0 0 5 1;
#X connect 1 0 3 0;
#X connect 1 0 5 0;
#X connect 3 1 0 0;
#X connect 4 0 0 0;
#X connect 5 0 2 0;
#X restore 70 36 pd sube_en_t \$1;
#N canvas 103 158 451 301 sube_en_t 0;
#X msg 229 71 400;
#X obj 92 21 inlet;
#X obj 109 184 outlet;
#X obj 169 51 t a b;
#X obj 224 21 inlet;
#X obj 180 100 line \$1 400;
#X connect 0 0 5 1;
#X connect 1 0 3 0;
#X connect 1 0 5 0;
#X connect 3 1 0 0;
#X connect 4 0 0 0;
#X connect 5 0 2 0;
#X restore 379 206 pd sube_en_t \$1;
#N canvas 103 158 451 301 sube_en_t 0;
#X msg 229 71 400;
#X obj 92 21 inlet;
#X obj 109 184 outlet;
#X obj 169 51 t a b;
#X obj 224 21 inlet;
#X obj 180 100 line \$1 400;
#X connect 0 0 5 1;
#X connect 1 0 3 0;
#X connect 1 0 5 0;
#X connect 3 1 0 0;
#X connect 4 0 0 0;
#X connect 5 0 2 0;
#X restore 92 211 pd sube_en_t \$1;
#N canvas 103 158 451 301 sube_en_t 0;
#X msg 229 71 400;
#X obj 92 21 inlet;
#X obj 109 184 outlet;
#X obj 169 51 t a b;
#X obj 224 21 inlet;
#X obj 180 100 line \$1 400;
#X connect 0 0 5 1;
#X connect 1 0 3 0;
#X connect 1 0 5 0;
#X connect 3 1 0 0;
#X connect 4 0 0 0;
#X connect 5 0 2 0;
#X restore 238 214 pd sube_en_t \$1;
#X connect 1 0 2 0;
#X connect 2 0 60 0;
#X connect 2 0 61 0;
#X connect 2 0 62 0;
#X connect 2 0 63 0;
#X connect 2 0 64 0;
#X connect 2 0 71 0;
#X connect 2 0 78 0;
#X connect 3 0 29 0;
#X connect 3 0 87 0;
#X connect 4 0 23 0;
#X connect 4 0 84 0;
#X connect 5 0 25 0;
#X connect 5 0 85 0;
#X connect 6 0 27 0;
#X connect 6 0 86 0;
#X connect 7 0 31 0;
#X connect 7 0 88 0;
#X connect 8 0 4 0;
#X connect 9 0 1 0;
#X connect 10 0 9 0;
#X connect 11 0 9 0;
#X connect 12 0 32 0;
#X connect 13 0 5 0;
#X connect 14 0 6 0;
#X connect 15 0 3 0;
#X connect 16 0 7 0;
#X connect 17 0 12 0;
#X connect 17 0 79 0;
#X connect 17 0 80 0;
#X connect 17 0 81 0;
#X connect 17 0 82 0;
#X connect 19 0 33 0;
#X connect 20 0 34 0;
#X connect 21 0 35 0;
#X connect 22 0 84 1;
#X connect 23 0 22 0;
#X connect 24 0 85 1;
#X connect 25 0 24 0;
#X connect 26 0 86 1;
#X connect 27 0 26 0;
#X connect 28 0 87 1;
#X connect 29 0 28 0;
#X connect 30 0 88 1;
#X connect 31 0 30 0;
#X connect 32 0 37 1;
#X connect 33 0 38 1;
#X connect 34 0 39 1;
#X connect 35 0 40 1;
#X connect 36 0 41 1;
#X connect 37 0 49 0;
#X connect 37 0 101 0;
#X connect 38 0 49 0;
#X connect 38 0 101 0;
#X connect 39 0 49 0;
#X connect 39 0 101 0;
#X connect 40 0 49 1;
#X connect 40 0 101 0;
#X connect 41 0 49 1;
#X connect 41 0 101 0;
#X connect 42 0 37 0;
#X connect 43 0 38 0;
#X connect 44 0 39 0;
#X connect 45 0 40 0;
#X connect 46 0 41 0;
#X connect 48 0 47 0;
#X connect 50 0 108 0;
#X connect 51 0 109 0;
#X connect 52 0 107 0;
#X connect 53 0 105 0;
#X connect 54 0 104 0;
#X connect 55 0 57 0;
#X connect 56 0 57 0;
#X connect 58 0 57 0;
#X connect 60 0 8 0;
#X connect 61 0 13 0;
#X connect 62 0 14 0;
#X connect 63 0 15 0;
#X connect 64 0 16 0;
#X connect 65 0 68 0;
#X connect 65 0 69 0;
#X connect 66 0 65 0;
#X connect 67 0 69 1;
#X connect 68 0 67 0;
#X connect 69 0 70 0;
#X connect 71 0 66 0;
#X connect 72 0 75 0;
#X connect 72 0 76 0;
#X connect 73 0 72 0;
#X connect 74 0 76 1;
#X connect 75 0 74 0;
#X connect 76 0 77 0;
#X connect 78 0 73 0;
#X connect 79 0 19 0;
#X connect 80 0 20 0;
#X connect 81 0 21 0;
#X connect 82 0 83 0;
#X connect 83 0 36 0;
#X connect 84 0 50 0;
#X connect 85 0 51 0;
#X connect 86 0 52 0;
#X connect 87 0 53 0;
#X connect 88 0 54 0;
#X connect 89 0 94 0;
#X connect 90 0 94 0;
#X connect 91 0 92 0;
#X connect 91 0 55 0;
#X connect 92 0 90 0;
#X connect 94 0 93 0;
#X connect 95 0 96 0;
#X connect 95 0 56 0;
#X connect 96 0 90 0;
#X connect 98 0 94 0;
#X connect 99 0 89 0;
#X connect 99 0 58 0;
#X connect 101 0 57 0;
#X connect 102 0 103 0;
#X connect 103 0 17 0;
#X connect 104 0 36 1;
#X connect 105 0 35 1;
#X connect 107 0 34 1;
#X connect 108 0 32 1;
#X connect 109 0 33 1;
