#N canvas 378 41 836 437 10;
#X text 943 244 for more info \, get help on:;
#X obj 1134 244 OSC;
#X obj 26 -68 import mrpeach;
#X obj 137 32 unpackOSC;
#X text 22 -116 Para ser usado con el escenario  de OpenVibe  analisis
temporal.xml Abrir primero routeOSC-help desde su directorio para que
se cargen las dlls.;
#X obj 137 64 routeOSC /eeg;
#X obj 481 130 routeOSC /beta/media;
#X obj 5 54 print egg recibido:;
#X floatatom 481 160 9 0 0 0 - - -, f 9;
#X obj 33 131 routeOSC /delta/media;
#X floatatom 27 192 9 0 0 0 - - -, f 9;
#X floatatom 179 160 9 0 0 0 - - -, f 9;
#X obj 181 131 routeOSC /theta/media;
#X floatatom 326 160 9 0 0 0 - - -, f 9;
#X obj 326 131 routeOSC /alpha/media;
#X floatatom 627 160 9 0 0 0 - - -, f 9;
#X obj 627 131 routeOSC /gamma/media;
#X obj 44 231 min;
#X obj 94 227 max;
#X floatatom 17 258 9 0 0 0 - - -, f 9;
#X floatatom 88 257 12 0 0 0 - - -, f 12;
#X floatatom 110 187 5 0 0 0 - - -, f 5;
#X obj 33 159 abs;
#X obj 137 5 udpreceive 9999 127.0.0.1;
#X msg 156 -29 port 9999;
#X msg 153 -55 port 0;
#X connect 3 0 5 0;
#X connect 5 0 6 0;
#X connect 5 0 9 0;
#X connect 5 0 12 0;
#X connect 5 0 14 0;
#X connect 5 0 16 0;
#X connect 6 0 8 0;
#X connect 9 0 22 0;
#X connect 10 0 17 0;
#X connect 10 0 18 0;
#X connect 12 0 11 0;
#X connect 14 0 13 0;
#X connect 16 0 15 0;
#X connect 17 0 19 0;
#X connect 18 0 20 0;
#X connect 21 0 17 1;
#X connect 21 0 18 1;
#X connect 22 0 10 0;
#X connect 23 0 3 0;
#X connect 24 0 23 0;
#X connect 25 0 23 0;
