#N canvas 378 40 837 583 10;
#X text 943 244 for more info \, get help on:;
#X obj 1134 244 OSC;
#X obj 26 -68 import mrpeach;
#X obj 130 -9 unpackOSC;
#X text 345 -73 Para ser usado con el escenario  de OpenVibe  analisis
temporal.xml Abrir primero routeOSC-help desde su directorio para que
se cargen las dlls.;
#X obj 130 15 routeOSC /eeg;
#X obj 465 58 routeOSC /beta/media;
#X floatatom 500 86 9 0 0 0 - - -, f 9;
#X obj 17 58 routeOSC /delta/media;
#X floatatom 58 86 9 0 0 0 - - -, f 9;
#X floatatom 196 86 9 0 0 0 - - -, f 9;
#X obj 165 58 routeOSC /theta/media;
#X floatatom 356 86 9 0 0 0 - - -, f 9;
#X obj 310 58 routeOSC /alpha/media;
#X floatatom 677 86 9 0 0 0 - - -, f 9;
#X obj 612 58 routeOSC /gamma/media;
#X obj 17 86 abs;
#X obj 130 -32 udpreceive 9999 127.0.0.1;
#X msg 192 -65 port 9999;
#X msg 131 -69 port 0;
#X obj 57 269 osc~;
#X obj 165 86 abs;
#X obj 310 86 abs;
#X obj 465 86 abs;
#X obj 612 86 abs;
#X floatatom 9 241 5 0 0 0 - - -, f 5;
#X text 25 200 fundamental;
#X obj 164 236 * 2;
#X obj 309 236 * 3;
#X obj 464 236 * 4;
#X obj 611 236 * 5;
#X msg -6 182 set 220;
#X obj 195 269 osc~;
#X obj 355 269 osc~;
#X obj 499 269 osc~;
#X obj 676 269 osc~;
#X floatatom 58 135 11 0 0 0 - - -, f 11;
#N canvas 674 119 451 324 maximo 0;
#X obj 55 28 inlet;
#X obj 55 113 outlet;
#X obj 55 54 expr if ($f1>$f2 \, $f1 \, $f2);
#X floatatom 55 79 11 0 0 0 - - -, f 11;
#X connect 0 0 2 0;
#X connect 2 0 3 0;
#X connect 3 0 2 1;
#X connect 3 0 1 0;
#X restore 58 108 pd maximo;
#X floatatom 196 135 11 0 0 0 - - -, f 11;
#N canvas 674 119 451 324 maximo 0;
#X obj 55 28 inlet;
#X obj 55 113 outlet;
#X obj 55 54 expr if ($f1>$f2 \, $f1 \, $f2);
#X floatatom 55 79 11 0 0 0 - - -, f 11;
#X connect 0 0 2 0;
#X connect 2 0 3 0;
#X connect 3 0 2 1;
#X connect 3 0 1 0;
#X restore 196 108 pd maximo;
#X floatatom 356 135 11 0 0 0 - - -, f 11;
#N canvas 674 119 451 324 maximo 0;
#X obj 55 28 inlet;
#X obj 55 113 outlet;
#X obj 55 54 expr if ($f1>$f2 \, $f1 \, $f2);
#X floatatom 55 79 11 0 0 0 - - -, f 11;
#X connect 0 0 2 0;
#X connect 2 0 3 0;
#X connect 3 0 2 1;
#X connect 3 0 1 0;
#X restore 356 108 pd maximo;
#X floatatom 500 135 11 0 0 0 - - -, f 11;
#N canvas 674 119 451 324 maximo 0;
#X obj 55 28 inlet;
#X obj 55 113 outlet;
#X obj 55 54 expr if ($f1>$f2 \, $f1 \, $f2);
#X floatatom 55 79 11 0 0 0 - - -, f 11;
#X connect 0 0 2 0;
#X connect 2 0 3 0;
#X connect 3 0 2 1;
#X connect 3 0 1 0;
#X restore 500 108 pd maximo;
#X floatatom 677 135 11 0 0 0 - - -, f 11;
#N canvas 674 119 451 324 maximo 0;
#X obj 55 28 inlet;
#X obj 55 113 outlet;
#X obj 55 54 expr if ($f1>$f2 \, $f1 \, $f2);
#X floatatom 55 79 11 0 0 0 - - -, f 11;
#X connect 0 0 2 0;
#X connect 2 0 3 0;
#X connect 3 0 2 1;
#X connect 3 0 1 0;
#X restore 677 108 pd maximo;
#X obj 92 299 *~;
#X obj 230 299 *~;
#X obj 390 299 *~;
#X obj 533 299 *~;
#X obj 712 299 *~;
#X obj 60 346 *~;
#X obj 199 346 *~, f 2;
#X obj 358 346 *~;
#X obj 501 346 *~;
#X obj 680 346 *~;
#X obj 29 318 tgl 15 0 empty empty empty 17 7 0 10 -262144 -1 -1 1
1;
#X obj 175 321 tgl 15 0 empty empty empty 17 7 0 10 -262144 -1 -1 1
1;
#X obj 335 321 tgl 15 0 empty empty empty 17 7 0 10 -262144 -1 -1 1
1;
#X obj 479 322 tgl 15 0 empty empty empty 17 7 0 10 -262144 -1 -1 1
1;
#X obj 656 319 tgl 15 0 empty empty empty 17 7 0 10 -262144 -1 -1 1
1;
#X obj 307 -65 dsp;
#X obj 288 -53 tgl 15 0 empty empty empty 17 7 0 10 -262144 -1 -1 1
1;
#X obj 323 393 dac~;
#X obj 34 160 expr $f1*10/$f2;
#X floatatom 72 187 5 0 0 0 - - -, f 5;
#X obj 169 156 expr $f1*10/$f2;
#X floatatom 207 183 5 0 0 0 - - -, f 5;
#X obj 326 155 expr $f1*10/$f2;
#X floatatom 364 182 5 0 0 0 - - -, f 5;
#X obj 477 158 expr $f1*10/$f2;
#X floatatom 515 185 5 0 0 0 - - -, f 5;
#X obj 631 157 expr $f1*10/$f2;
#X floatatom 669 184 5 0 0 0 - - -, f 5;
#X msg 251 407 start;
#X msg 258 432 stop;
#X obj 198 452 writesf~;
#X obj 90 394 *~ 1;
#X msg 122 416 open brainOSC.wav;
#X connect 3 0 5 0;
#X connect 5 0 6 0;
#X connect 5 0 8 0;
#X connect 5 0 11 0;
#X connect 5 0 13 0;
#X connect 5 0 15 0;
#X connect 6 0 23 0;
#X connect 7 0 43 0;
#X connect 7 0 70 0;
#X connect 8 0 16 0;
#X connect 9 0 37 0;
#X connect 9 0 64 0;
#X connect 10 0 39 0;
#X connect 10 0 66 0;
#X connect 11 0 21 0;
#X connect 12 0 41 0;
#X connect 12 0 68 0;
#X connect 13 0 22 0;
#X connect 14 0 45 0;
#X connect 14 0 72 0;
#X connect 15 0 24 0;
#X connect 16 0 9 0;
#X connect 17 0 3 0;
#X connect 18 0 17 0;
#X connect 19 0 17 0;
#X connect 20 0 46 0;
#X connect 21 0 10 0;
#X connect 22 0 12 0;
#X connect 23 0 7 0;
#X connect 24 0 14 0;
#X connect 25 0 20 0;
#X connect 25 0 27 0;
#X connect 25 0 28 0;
#X connect 25 0 29 0;
#X connect 25 0 30 0;
#X connect 27 0 32 0;
#X connect 28 0 33 0;
#X connect 29 0 34 0;
#X connect 30 0 35 0;
#X connect 31 0 25 0;
#X connect 32 0 47 0;
#X connect 33 0 48 0;
#X connect 34 0 49 0;
#X connect 35 0 50 0;
#X connect 36 0 64 1;
#X connect 37 0 36 0;
#X connect 38 0 66 1;
#X connect 39 0 38 0;
#X connect 40 0 68 1;
#X connect 41 0 40 0;
#X connect 42 0 70 1;
#X connect 43 0 42 0;
#X connect 44 0 72 1;
#X connect 45 0 44 0;
#X connect 46 0 51 1;
#X connect 47 0 52 1;
#X connect 48 0 53 1;
#X connect 49 0 54 1;
#X connect 50 0 55 1;
#X connect 51 0 63 0;
#X connect 51 0 77 0;
#X connect 52 0 63 0;
#X connect 52 0 77 0;
#X connect 53 0 63 0;
#X connect 53 0 77 0;
#X connect 54 0 63 1;
#X connect 54 0 77 0;
#X connect 55 0 63 1;
#X connect 56 0 51 0;
#X connect 57 0 52 0;
#X connect 58 0 53 0;
#X connect 59 0 54 0;
#X connect 60 0 55 0;
#X connect 62 0 61 0;
#X connect 64 0 65 0;
#X connect 65 0 46 1;
#X connect 66 0 67 0;
#X connect 67 0 47 1;
#X connect 68 0 69 0;
#X connect 69 0 48 1;
#X connect 70 0 71 0;
#X connect 71 0 49 1;
#X connect 72 0 73 0;
#X connect 73 0 50 1;
#X connect 74 0 76 0;
#X connect 75 0 76 0;
#X connect 77 0 76 0;
#X connect 78 0 76 0;
