#N canvas -16 10 1265 657 10;
#X msg 56 64 disconnect;
#X obj 182 226 tgl 8 0 empty empty connected 8 3 0 8 -24198 -13381
-1 1 1;
#X obj 13 3 pddp/dsp;
#X obj 14 314 dac~;
#N canvas 98 113 451 301 desplaza_frecuencia 0;
#X obj 40 17 inlet~;
#X obj 179 51 inlet;
#X text 90 18 señal a trasladar;
#X text 221 51 frecuencia a trasladar;
#X obj 41 114 complex-mod~;
#X obj 41 74 hilbert~;
#X obj 38 162 outlet~;
#X connect 0 0 5 0;
#X connect 1 0 4 2;
#X connect 4 0 6 0;
#X connect 5 0 4 0;
#X connect 5 1 4 1;
#X restore 67 170 pd desplaza_frecuencia;
#X floatatom 220 131 5 200 20000 0 - - -, f 5;
#X msg 285 98 set 200;
#X msg 301 156 set 20000;
#X text 116 14 comment;
#X text 367 156 20Khz;
#X msg 294 131 set 2000;
#X text 359 132 2Khz;
#X obj 20 204 *~;
#X obj 15 179 tgl 15 0 empty empty empty 17 7 0 10 -262144 -1 -1 0
1;
#X obj 46 269 *~;
#X obj 50 229 tgl 15 0 empty empty empty 17 7 0 10 -262144 -1 -1 1
1;
#N canvas 0 0 450 300 autobang 0;
#X obj 59 31 loadbang;
#X obj 59 65 metro 50;
#X obj 60 101 outlet;
#X connect 0 0 1 0;
#X connect 1 0 2 0;
#X restore 238 51 pd autobang;
#X msg 23 34 connect localhost 50004;
#X obj 86 239 *~ 0.8;
#X floatatom 132 191 5 1 100 0 - - -, f 5;
#X obj 122 217 * 0.01;
#X text 87 5 Para usar con analisis_temporal-TCP.xml (escenario OpenVibe)
;
#X msg 510 38 disconnect;
#X obj 596 138 tgl 8 0 empty empty connected 8 3 0 8 -24198 -13381
-1 1 1;
#X obj 449 318 dac~;
#N canvas 98 113 451 301 desplaza_frecuencia 0;
#X obj 40 17 inlet~;
#X obj 179 51 inlet;
#X text 90 18 señal a trasladar;
#X text 221 51 frecuencia a trasladar;
#X obj 41 114 complex-mod~;
#X obj 41 74 hilbert~;
#X obj 38 162 outlet~;
#X connect 0 0 5 0;
#X connect 1 0 4 2;
#X connect 4 0 6 0;
#X connect 5 0 4 0;
#X connect 5 1 4 1;
#X restore 502 174 pd desplaza_frecuencia;
#X floatatom 697 164 5 200 20000 0 - - -, f 5;
#X msg 723 61 set 200;
#X msg 739 119 set 20000;
#X text 821 123 20Khz;
#X msg 732 94 set 2000;
#X text 813 99 2Khz;
#X obj 455 208 *~;
#X obj 450 183 tgl 15 0 empty empty empty 17 7 0 10 -262144 -1 -1 0
1;
#X obj 481 273 *~;
#X obj 485 233 tgl 15 0 empty empty empty 17 7 0 10 -262144 -1 -1 1
1;
#N canvas 0 0 450 300 autobang 0;
#X obj 59 31 loadbang;
#X obj 59 65 metro 50;
#X obj 60 101 outlet;
#X connect 0 0 1 0;
#X connect 1 0 2 0;
#X restore 676 14 pd autobang;
#X obj 521 243 *~ 0.8;
#X floatatom 578 194 5 1 100 0 - - -, f 5;
#X obj 573 225 * 0.01;
#X msg 478 8 connect localhost 50008;
#X msg 892 29 disconnect;
#X obj 1009 129 tgl 8 0 empty empty connected 8 3 0 8 -24198 -13381
-1 1 1;
#X obj 862 309 dac~;
#N canvas 98 113 451 301 desplaza_frecuencia 0;
#X obj 40 17 inlet~;
#X obj 179 51 inlet;
#X text 90 18 señal a trasladar;
#X text 221 51 frecuencia a trasladar;
#X obj 41 114 complex-mod~;
#X obj 41 74 hilbert~;
#X obj 38 162 outlet~;
#X connect 0 0 5 0;
#X connect 1 0 4 2;
#X connect 4 0 6 0;
#X connect 5 0 4 0;
#X connect 5 1 4 1;
#X restore 915 165 pd desplaza_frecuencia;
#X floatatom 1086 156 5 200 20000 0 - - -, f 5;
#X msg 1125 76 set 200;
#X msg 1141 134 set 20000;
#X text 1208 131 20Khz;
#X msg 1134 109 set 2000;
#X text 1200 107 2Khz;
#X obj 868 199 *~;
#X obj 863 174 tgl 15 0 empty empty empty 17 7 0 10 -262144 -1 -1 0
1;
#X obj 894 264 *~;
#X obj 898 224 tgl 15 0 empty empty empty 17 7 0 10 -262144 -1 -1 1
1;
#N canvas 0 0 450 300 autobang 0;
#X obj 59 31 loadbang;
#X obj 59 65 metro 50;
#X obj 60 101 outlet;
#X connect 0 0 1 0;
#X connect 1 0 2 0;
#X restore 1078 29 pd autobang;
#X obj 934 234 *~ 0.8;
#X floatatom 991 185 5 1 100 0 - - -, f 5;
#X obj 970 212 * 0.01;
#X msg 859 -1 connect localhost 50013;
#X msg 135 360 disconnect;
#X obj 260 426 tgl 8 0 empty empty connected 8 3 0 8 -24198 -13381
-1 1 1;
#X obj 113 606 dac~;
#N canvas 98 113 451 301 desplaza_frecuencia 0;
#X obj 40 17 inlet~;
#X obj 179 51 inlet;
#X text 90 18 señal a trasladar;
#X text 221 51 frecuencia a trasladar;
#X obj 41 114 complex-mod~;
#X obj 41 74 hilbert~;
#X obj 38 162 outlet~;
#X connect 0 0 5 0;
#X connect 1 0 4 2;
#X connect 4 0 6 0;
#X connect 5 0 4 0;
#X connect 5 1 4 1;
#X restore 166 462 pd desplaza_frecuencia;
#X floatatom 339 477 5 200 20000 0 - - -, f 5;
#X msg 365 374 set 200;
#X msg 381 432 set 20000;
#X text 447 432 20Khz;
#X msg 374 407 set 2000;
#X text 439 408 2Khz;
#X obj 119 496 *~;
#X obj 114 471 tgl 15 0 empty empty empty 17 7 0 10 -262144 -1 -1 0
1;
#X obj 145 561 *~;
#X obj 149 521 tgl 15 0 empty empty empty 17 7 0 10 -262144 -1 -1 1
1;
#N canvas 0 0 450 300 autobang 0;
#X obj 59 31 loadbang;
#X obj 59 65 metro 50;
#X obj 60 101 outlet;
#X connect 0 0 1 0;
#X connect 1 0 2 0;
#X restore 318 327 pd autobang;
#X obj 185 531 *~ 0.8;
#X floatatom 242 482 5 1 100 0 - - -, f 5;
#X obj 221 509 * 0.01;
#X msg 103 330 connect localhost 50030;
#X msg 585 342 disconnect;
#X obj 704 423 tgl 8 0 empty empty connected 8 3 0 8 -24198 -13381
-1 1 1;
#X obj 557 603 dac~;
#N canvas 98 113 451 301 desplaza_frecuencia 0;
#X obj 40 17 inlet~;
#X obj 179 51 inlet;
#X text 90 18 señal a trasladar;
#X text 221 51 frecuencia a trasladar;
#X obj 41 114 complex-mod~;
#X obj 41 74 hilbert~;
#X obj 38 162 outlet~;
#X connect 0 0 5 0;
#X connect 1 0 4 2;
#X connect 4 0 6 0;
#X connect 5 0 4 0;
#X connect 5 1 4 1;
#X restore 610 459 pd desplaza_frecuencia;
#X floatatom 790 461 5 200 20000 0 - - -, f 5;
#X msg 816 358 set 200;
#X msg 832 416 set 20000;
#X text 898 416 20Khz;
#X msg 825 391 set 2000;
#X text 890 392 2Khz;
#X obj 563 493 *~;
#X obj 558 468 tgl 15 0 empty empty empty 17 7 0 10 -262144 -1 -1 0
1;
#X obj 589 558 *~;
#X obj 593 518 tgl 15 0 empty empty empty 17 7 0 10 -262144 -1 -1 1
1;
#N canvas 0 0 450 300 autobang 0;
#X obj 59 31 loadbang;
#X obj 59 65 metro 50;
#X obj 60 101 outlet;
#X connect 0 0 1 0;
#X connect 1 0 2 0;
#X restore 769 311 pd autobang;
#X obj 629 528 *~ 0.8;
#X floatatom 686 479 5 1 100 0 - - -, f 5;
#X obj 665 506 * 0.01;
#X msg 553 312 connect localhost 50100;
#X obj 42 106 tcpOpenVibe~;
#X obj 477 110 tcpOpenVibe~;
#X obj 890 101 tcpOpenVibe~;
#X obj 141 398 tcpOpenVibe~;
#X obj 585 395 tcpOpenVibe~;
#X connect 0 0 98 0;
#X connect 4 0 18 0;
#X connect 5 0 4 1;
#X connect 6 0 5 0;
#X connect 7 0 5 0;
#X connect 10 0 5 0;
#X connect 12 0 3 0;
#X connect 13 0 12 0;
#X connect 14 0 3 0;
#X connect 15 0 14 0;
#X connect 16 0 5 0;
#X connect 17 0 98 0;
#X connect 18 0 14 1;
#X connect 19 0 20 0;
#X connect 20 0 18 1;
#X connect 22 0 99 0;
#X connect 25 0 37 0;
#X connect 26 0 25 1;
#X connect 27 0 26 0;
#X connect 28 0 26 0;
#X connect 30 0 26 0;
#X connect 32 0 24 0;
#X connect 33 0 32 0;
#X connect 34 0 24 0;
#X connect 35 0 34 0;
#X connect 36 0 26 0;
#X connect 37 0 34 1;
#X connect 38 0 39 0;
#X connect 39 0 37 1;
#X connect 40 0 99 0;
#X connect 41 0 100 0;
#X connect 44 0 56 0;
#X connect 45 0 44 1;
#X connect 46 0 45 0;
#X connect 47 0 45 0;
#X connect 49 0 45 0;
#X connect 51 0 43 0;
#X connect 52 0 51 0;
#X connect 53 0 43 0;
#X connect 54 0 53 0;
#X connect 55 0 45 0;
#X connect 56 0 53 1;
#X connect 57 0 58 0;
#X connect 58 0 56 1;
#X connect 59 0 100 0;
#X connect 60 0 101 0;
#X connect 63 0 75 0;
#X connect 64 0 63 1;
#X connect 65 0 64 0;
#X connect 66 0 64 0;
#X connect 68 0 64 0;
#X connect 70 0 62 0;
#X connect 71 0 70 0;
#X connect 72 0 62 0;
#X connect 73 0 72 0;
#X connect 74 0 64 0;
#X connect 75 0 72 1;
#X connect 76 0 77 0;
#X connect 77 0 75 1;
#X connect 78 0 101 0;
#X connect 79 0 102 0;
#X connect 82 0 94 0;
#X connect 83 0 82 1;
#X connect 84 0 83 0;
#X connect 85 0 83 0;
#X connect 87 0 83 0;
#X connect 89 0 81 0;
#X connect 90 0 89 0;
#X connect 91 0 81 0;
#X connect 92 0 91 0;
#X connect 93 0 83 0;
#X connect 94 0 91 1;
#X connect 95 0 96 0;
#X connect 96 0 94 1;
#X connect 97 0 102 0;
#X connect 98 0 4 0;
#X connect 98 0 12 1;
#X connect 98 2 1 0;
#X connect 99 0 32 1;
#X connect 99 0 25 0;
#X connect 99 2 23 0;
#X connect 100 0 44 0;
#X connect 100 0 51 1;
#X connect 100 2 42 0;
#X connect 101 2 61 0;
#X connect 102 0 82 0;
#X connect 102 0 89 1;
#X connect 102 2 80 0;
