#N canvas 568 42 584 594 10;
#X msg 181 138 disconnect;
#X obj 12 503 dac~;
#N canvas 98 113 451 301 desplaza_frecuencia 0;
#X obj 40 17 inlet~;
#X obj 179 51 inlet;
#X text 90 18 señal a trasladar;
#X text 221 51 frecuencia a trasladar;
#X obj 41 114 complex-mod~;
#X obj 41 74 hilbert~;
#X obj 38 162 outlet~;
#X connect 0 0 5 0;
#X connect 1 0 4 2;
#X connect 4 0 6 0;
#X connect 5 0 4 0;
#X connect 5 1 4 1;
#X restore 133 385 pd desplaza_frecuencia;
#X floatatom 306 433 5 -20000 20000 0 - - -, f 5;
#X msg 397 398 set 200;
#X msg 412 456 set 20000;
#X text 478 456 20Khz;
#X msg 405 431 set 2000, f 12;
#X text 470 432 2Khz;
#X obj 2 221 *~;
#X obj -12 195 tgl 13 0 empty empty empty 17 7 0 10 -262144 -1 -1 0
1;
#X obj 4 456 *~;
#X obj -3 436 tgl 15 0 empty empty empty 17 7 0 10 -262144 -1 -1 1
1;
#X obj 38 417 *~ 0.8;
#X floatatom 134 438 5 1 4000 0 - - -, f 5;
#X obj 85 416 * 0.01;
#X obj 126 162 tcpOpenVibe~;
#X obj 208 191 dsp;
#N canvas 0 0 450 300 (subpatch) 0;
#X array openvibe 100 float 0 black black;
#X coords 0 100 99 -100 250 70 1;
#X restore 282 93 graph;
#X obj 136 222 min, f 6;
#X floatatom 135 251 5 0 0 0 - - -, f 5;
#X floatatom 182 259 6 0 0 0 - - -, f 6;
#X obj 190 223 max;
#X obj 143 188 unsig~;
#X obj 12 141 loadbang;
#X obj 12 191 tabwrite~ openvibe;
#X obj 324 375 loadbang;
#N canvas 0 0 450 300 (subpatch) 0;
#X array desplazado 100 float 0 black black;
#X coords 0 100 99 -100 250 70 1;
#X restore 287 196 graph;
#X obj -1 324 loadbang;
#X obj -1 374 tabwrite~ desplazado;
#X obj 11 247 dac~;
#X text 536 87 100;
#X text 536 147 -100;
#X text 150 358 para pasar a la zona audible. necesitamos desplazar
minimo 200 Hz;
#X text 102 289 amplitud;
#X obj 161 286 -;
#X floatatom 161 310 5 0 0 0 - - -, f 5;
#X text 544 191 100;
#X text 544 251 -100;
#N canvas 824 4 456 421 normaliza_amplitud 0;
#X obj 9 23 inlet~;
#X obj 364 177 outlet~;
#X text 5 3 señal in;
#X obj 165 22 inlet;
#X obj 50 109 min, f 6;
#X floatatom 49 138 5 0 0 0 - - -, f 5;
#X floatatom 96 146 6 0 0 0 - - -, f 6;
#X obj 104 110 max;
#X obj 57 75 unsig~;
#X obj 33 188 -;
#X floatatom 52 210 5 0 0 0 - - -, f 5;
#X text 34 229 amplitud pp entrada;
#X text 161 8 amplitd pp deseada;
#X obj 173 84 loadbang;
#X obj 174 110 metro 500;
#X floatatom 201 50 5 0 0 0 - - -, f 5;
#X obj 311 94 /~;
#X obj 311 132 *~;
#X connect 0 0 8 0;
#X connect 0 0 16 0;
#X connect 3 0 15 0;
#X connect 4 0 5 0;
#X connect 5 0 4 1;
#X connect 5 0 9 1;
#X connect 6 0 7 1;
#X connect 6 0 9 0;
#X connect 7 0 6 0;
#X connect 8 0 4 0;
#X connect 8 0 7 0;
#X connect 9 0 10 0;
#X connect 10 0 16 1;
#X connect 13 0 14 0;
#X connect 15 0 17 1;
#X connect 16 0 17 0;
#X connect 17 0 1 0;
#X restore 337 521 pd normaliza_amplitud;
#X msg 434 489 set 2;
#N canvas 0 0 450 300 (subpatch) 0;
#X array normalizado 100 float 0 black black;
#X coords 0 1 99 -1 250 70 1;
#X restore 287 280 graph;
#X obj 280 519 loadbang;
#X obj 279 568 tabwrite~ normalizado;
#X text 541 277 1;
#X text 542 332 -1;
#X floatatom 85 454 5 0 0 0 - - -, f 5;
#X obj 202 560 dac~;
#X obj 194 513 *~;
#X obj 187 493 tgl 15 0 empty empty empty 17 7 0 10 -262144 -1 -1 0
1;
#X obj 279 544 metro 500;
#X text 19 9 Para usar con el escenario Analisis temporal_TCP de OpenVibe
;
#X msg -2 27 connect localhost 50100;
#X msg 35 48 connect localhost 50030;
#X msg 70 70 connect localhost 50013;
#X msg 100 90 connect loalhost 50008;
#X msg 121 114 connect localhost 50004;
#X msg 133 517 start;
#X msg 140 542 stop;
#X obj 80 562 writesf~;
#X obj 0 350 metro 100;
#X obj 12 167 metro 100;
#X obj 320 399 metro 100;
#X msg 4 526 open beta.wav;
#X connect 0 0 16 0;
#X connect 2 0 13 0;
#X connect 2 0 39 0;
#X connect 3 0 2 1;
#X connect 4 0 3 0;
#X connect 5 0 3 0;
#X connect 7 0 3 0;
#X connect 9 0 30 0;
#X connect 10 0 9 0;
#X connect 11 0 1 0;
#X connect 12 0 11 0;
#X connect 13 0 11 1;
#X connect 13 0 29 0;
#X connect 13 0 59 0;
#X connect 14 0 15 0;
#X connect 15 0 13 1;
#X connect 15 0 46 0;
#X connect 16 0 2 0;
#X connect 16 0 9 1;
#X connect 16 0 23 0;
#X connect 16 0 25 0;
#X connect 16 2 17 0;
#X connect 19 0 20 0;
#X connect 20 0 19 1;
#X connect 20 0 35 1;
#X connect 21 0 22 1;
#X connect 21 0 35 0;
#X connect 22 0 21 0;
#X connect 23 0 19 0;
#X connect 23 0 22 0;
#X connect 24 0 61 0;
#X connect 26 0 62 0;
#X connect 28 0 60 0;
#X connect 35 0 36 0;
#X connect 39 0 43 0;
#X connect 39 0 48 1;
#X connect 40 0 39 1;
#X connect 42 0 50 0;
#X connect 48 0 47 0;
#X connect 49 0 48 0;
#X connect 50 0 43 0;
#X connect 52 0 16 0;
#X connect 53 0 16 0;
#X connect 54 0 16 0;
#X connect 55 0 16 0;
#X connect 56 0 16 0;
#X connect 57 0 59 0;
#X connect 58 0 59 0;
#X connect 60 0 29 0;
#X connect 61 0 25 0;
#X connect 62 0 3 0;
#X connect 62 0 40 0;
#X connect 63 0 59 0;
